<?xml version="1.0" standalone="no"?><!DOCTYPE svg PUBLIC "-//W3C//DTD SVG 1.1//EN" "http://www.w3.org/Graphics/SVG/1.1/DTD/svg11.dtd"><svg t="1720763245945" class="icon" viewBox="0 0 1024 1024" version="1.1" xmlns="http://www.w3.org/2000/svg" p-id="3805" data-spm-anchor-id="a313x.search_index.0.i5.45ea3a81Cf8qIA" xmlns:xlink="http://www.w3.org/1999/xlink" width="64" height="64"><path d="M752.977353 639.872343" p-id="3806"></path><path d="M785.212522 568.667627c-24.567535 8.743128-105.372909 31.863708-272.90553 31.863708-171.183777 0-251.825422-24.140817-274.439466-32.416294l-29.226648 310.402539c-0.556679 3.145643 0 6.303566 0 6.719028 0 24.855084 49.953715 46.855144 126.629026 60.321854 0.001023 0 0.00307 0 0.004093 0.001023l0.001023 0c49.743938 8.736988 110.73094 13.883195 176.63493 13.883195 164.91705 0 299.088866-32.212656 303.173904-72.322166 0.544399-2.427282 0.682545-4.992711 0.313132-7.724938L785.212522 568.667627z" p-id="3807" data-spm-anchor-id="a313x.search_index.0.i7.45ea3a81Cf8qIA" class="" fill="#1296db"></path><path d="M720.698183 277.998525c10.536984-83.083254 13.600763-196.415438-44.535309-212.011648-66.652026-17.881253-99.839893 104.062054-114.89682 191.427844-16.158005-0.73985-32.574906-1.163499-49.266054-1.163499-8.377808 0-16.682961 0.11461-24.932856 0.305969-15.125489-87.303368-48.313356-208.393237-114.748441-190.570313-56.978712 15.285125-55.169507 124.450407-45.154409 207.010751-130.355907 25.169239-219.522716 76.119655-219.522716 134.88813 0 83.742263 181.038216 151.634536 404.358421 151.634536s404.358421-67.89125 404.358421-151.634536C916.357398 352.777649 837.948607 304.546158 720.698183 277.998525zM512 458.430944c-130.270972 0-235.875149-30.172183-235.875149-67.3929 0-17.632589 23.721261-33.679054 62.517869-45.689598 2.671852 13.691837 4.573155 21.887496 4.573155 21.887496l57.502645-9.648754c-9.015328-54.030567-22.50762-154.168242-0.285502-162.439626 24.718985-9.195429 44.50768 96.90198 53.233412 153.555282l44.493354-7.466042c0 0-0.505513-6.494924-1.678222-17.443277 5.131881-0.096191 10.3006-0.153496 15.518438-0.153496 13.610996 0 26.932396 0.346901 39.910988 0.979304-1.111311 10.457166-1.589195 16.616446-1.589195 16.616446l44.493354 7.466042c8.725732-56.653301 28.514427-162.750711 53.233412-153.555282 22.222117 8.271384 8.730848 108.409059-0.285502 162.439626l57.502645 9.648754c0 0 1.154289-4.984524 2.919493-13.615089 25.061792 10.704806 39.692001 23.570835 39.692001 37.416168C747.878219 428.258761 642.269949 458.430944 512 458.430944z" p-id="3808" data-spm-anchor-id="a313x.search_index.0.i3.45ea3a81Cf8qIA" class="" fill="#1296db"></path></svg>